<svg width="22" height="30" viewBox="0 0 22 30" fill="none" xmlns="http://www.w3.org/2000/svg">
    <g clip-path="url(#clip0)">
        <path d="M15.6875 1.875H13.6512C13.265 0.78375 12.2225 0 11 0C9.7775 0 8.735 0.78375 8.34688 1.875H6.3125C5.795 1.875 5.375 2.295 5.375 2.8125V6.5625C5.375 7.08 5.795 7.5 6.3125 7.5H15.6875C16.205 7.5 16.625 7.08 16.625 6.5625V2.8125C16.625 2.295 16.205 1.875 15.6875 1.875Z" fill="currentColor" />
        <path d="M20.375 3.75H18.5V6.5625C18.5 8.11312 17.2381 9.375 15.6875 9.375H6.3125C4.76188 9.375 3.5 8.11312 3.5 6.5625V3.75H1.625C0.591875 3.75 -0.25 4.59188 -0.25 5.625V28.125C-0.25 29.1769 0.573125 30 1.625 30H20.375C21.4269 30 22.25 29.1769 22.25 28.125V5.625C22.25 4.57313 21.4269 3.75 20.375 3.75ZM10.7262 20.3512L6.97625 24.1012C6.7925 24.2831 6.5525 24.375 6.3125 24.375C6.0725 24.375 5.8325 24.2831 5.64875 24.1012L3.77375 22.2262C3.40812 21.8606 3.40812 21.2663 3.77375 20.9006C4.13937 20.535 4.73375 20.535 5.09938 20.9006L6.3125 22.1119L9.39875 19.0256C9.76437 18.66 10.3588 18.66 10.7244 19.0256C11.09 19.3913 11.0919 19.9837 10.7262 20.3512ZM10.7262 12.8512L6.97625 16.6012C6.7925 16.7831 6.5525 16.875 6.3125 16.875C6.0725 16.875 5.8325 16.7831 5.64875 16.6012L3.77375 14.7262C3.40812 14.3606 3.40812 13.7662 3.77375 13.4006C4.13937 13.035 4.73375 13.035 5.09938 13.4006L6.3125 14.6119L9.39875 11.5256C9.76437 11.16 10.3588 11.16 10.7244 11.5256C11.09 11.8912 11.0919 12.4838 10.7262 12.8512ZM17.5625 22.5H13.8125C13.295 22.5 12.875 22.08 12.875 21.5625C12.875 21.045 13.295 20.625 13.8125 20.625H17.5625C18.08 20.625 18.5 21.045 18.5 21.5625C18.5 22.08 18.08 22.5 17.5625 22.5ZM17.5625 15H13.8125C13.295 15 12.875 14.58 12.875 14.0625C12.875 13.545 13.295 13.125 13.8125 13.125H17.5625C18.08 13.125 18.5 13.545 18.5 14.0625C18.5 14.58 18.08 15 17.5625 15Z" fill="currentColor" />
    </g>
    <defs>
        <clipPath id="clip0">
            <rect width="22" height="30" fill="white" />
        </clipPath>
    </defs>
</svg>