<svg width="26" height="26" viewBox="0 0 26 26" fill="none" xmlns="http://www.w3.org/2000/svg">
    <g clip-path="url(#clip0)">
        <path d="M23.997 16.333C23.6393 16.333 23.3494 16.6229 23.3494 16.9806V22.73C23.3482 23.8025 22.4793 24.6716 21.4068 24.6726H3.23767C2.16519 24.6716 1.29633 23.8025 1.29507 22.73V5.85587C1.29633 4.78364 2.16519 3.91453 3.23767 3.91326H8.98707C9.34474 3.91326 9.63461 3.62339 9.63461 3.26573C9.63461 2.90832 9.34474 2.61819 8.98707 2.61819H3.23767C1.45038 2.62022 0.00202355 4.06857 0 5.85587V22.7302C0.00202355 24.5175 1.45038 25.9659 3.23767 25.9679H21.4068C23.1941 25.9659 24.6425 24.5175 24.6445 22.7302V16.9806C24.6445 16.6229 24.3546 16.333 23.997 16.333Z" fill="currentColor" />
        <path d="M24.3881 0.952058C23.2501 -0.185934 21.4051 -0.185934 20.2671 0.952058L8.71467 12.5045C8.6355 12.5837 8.57833 12.6818 8.54848 12.7895L7.02931 18.2741C6.96683 18.499 7.03032 18.7398 7.19524 18.905C7.36041 19.0699 7.60121 19.1334 7.82608 19.0711L13.3106 17.5517C13.4184 17.5219 13.5165 17.4647 13.5957 17.3855L25.1479 5.83285C26.2841 4.6941 26.2841 2.85065 25.1479 1.7119L24.3881 0.952058ZM10.1256 12.9254L19.5804 3.47036L22.6296 6.51959L13.1746 15.9746L10.1256 12.9254ZM9.5165 14.1476L11.9526 16.584L8.58288 17.5176L9.5165 14.1476ZM24.2322 4.9172L23.5455 5.60394L20.496 2.55445L21.183 1.86771C21.8151 1.23561 22.84 1.23561 23.4721 1.86771L24.2322 2.62755C24.8633 3.26042 24.8633 4.28459 24.2322 4.9172Z" fill="currentColor" />
    </g>
    <defs>
        <clipPath id="clip0">
            <rect width="26" height="26" fill="white" />
        </clipPath>
    </defs>
</svg>