<svg width="22" height="26" viewBox="0 0 22 26" fill="none" xmlns="http://www.w3.org/2000/svg">
    <g clip-path="url(#clip0)">
        <path d="M14.5863 9.41983C14.25 9.41983 13.9774 9.69241 13.9774 10.0287V21.5369C13.9774 21.873 14.25 22.1458 14.5863 22.1458C14.9226 22.1458 15.1952 21.873 15.1952 21.5369V10.0287C15.1952 9.69241 14.9226 9.41983 14.5863 9.41983Z" fill="currentColor" />
        <path d="M7.40132 9.41983C7.065 9.41983 6.79242 9.69241 6.79242 10.0287V21.5369C6.79242 21.873 7.065 22.1458 7.40132 22.1458C7.73764 22.1458 8.01022 21.873 8.01022 21.5369V10.0287C8.01022 9.69241 7.73764 9.41983 7.40132 9.41983Z" fill="currentColor" />
        <path d="M2.16479 7.74037V22.7423C2.16479 23.629 2.48993 24.4617 3.05792 25.0592C3.62329 25.6584 4.4101 25.9985 5.23354 25.9999H16.7541C17.5777 25.9985 18.3646 25.6584 18.9297 25.0592C19.4977 24.4617 19.8228 23.629 19.8228 22.7423V7.74037C20.9519 7.44068 21.6835 6.3499 21.5325 5.19133C21.3812 4.033 20.3944 3.16651 19.2261 3.16627H16.1085V2.40515C16.1121 1.76509 15.859 1.15049 15.4059 0.698333C14.9528 0.246417 14.3373 -0.005229 13.6972 3.71016e-06H8.2904C7.65034 -0.005229 7.03478 0.246417 6.58168 0.698333C6.12857 1.15049 5.8755 1.76509 5.87907 2.40515V3.16627H2.76156C1.59324 3.16651 0.606396 4.033 0.455123 5.19133C0.304088 6.3499 1.03572 7.44068 2.16479 7.74037ZM16.7541 24.7821H5.23354C4.19247 24.7821 3.38259 23.8878 3.38259 22.7423V7.79389H18.605V22.7423C18.605 23.8878 17.7951 24.7821 16.7541 24.7821ZM7.09686 2.40515C7.09282 2.08809 7.21745 1.78293 7.44246 1.55911C7.66723 1.3353 7.9731 1.21233 8.2904 1.2178H13.6972C14.0145 1.21233 14.3204 1.3353 14.5452 1.55911C14.7702 1.78269 14.8948 2.08809 14.8907 2.40515V3.16627H7.09686V2.40515ZM2.76156 4.38406H19.2261C19.8314 4.38406 20.3221 4.87475 20.3221 5.48008C20.3221 6.08541 19.8314 6.57609 19.2261 6.57609H2.76156C2.15623 6.57609 1.66554 6.08541 1.66554 5.48008C1.66554 4.87475 2.15623 4.38406 2.76156 4.38406Z" fill="currentColor" />
        <path d="M10.9938 9.41983C10.6575 9.41983 10.3849 9.69241 10.3849 10.0287V21.5369C10.3849 21.873 10.6575 22.1458 10.9938 22.1458C11.3302 22.1458 11.6027 21.873 11.6027 21.5369V10.0287C11.6027 9.69241 11.3302 9.41983 10.9938 9.41983Z" fill="currentColor" />
    </g>
    <defs>
        <clipPath id="clip0">
            <rect width="22" height="26" fill="white" />
        </clipPath>
    </defs>
</svg>