<?xml version="1.0" standalone="no"?>
<!DOCTYPE svg PUBLIC "-//W3C//DTD SVG 20010904//EN"
 "http://www.w3.org/TR/2001/REC-SVG-20010904/DTD/svg10.dtd">
<svg version="1.0" xmlns="http://www.w3.org/2000/svg"
 width="120.000000pt" height="120.000000pt" viewBox="0 0 120.000000 120.000000"
 preserveAspectRatio="xMidYMid meet">
<metadata>
Created by potrace 1.14, written by Peter Selinger 2001-2017
</metadata>
<g transform="translate(0.000000,120.000000) scale(0.100000,-0.100000)"
fill="#000000" stroke="none">
<path d="M554 1191 c-12 -5 -31 -21 -42 -36 -17 -21 -31 -27 -72 -30 -29 -2
-54 -6 -58 -9 -3 -3 -6 -47 -7 -97 -2 -67 1 -94 12 -105 20 -19 417 -21 429
-2 5 7 8 52 9 101 1 101 -4 108 -69 112 -35 2 -50 9 -73 35 -30 34 -89 48
-129 31z"/>
<path d="M182 1034 l-22 -15 0 -494 0 -494 22 -15 c19 -14 76 -16 418 -16 342
0 399 2 418 16 l22 15 0 494 0 494 -22 15 c-13 9 -43 16 -70 16 l-48 0 0 -66
c0 -81 -20 -127 -63 -145 -23 -10 -91 -13 -244 -13 -199 0 -215 1 -240 20 -41
31 -53 61 -53 137 l0 67 -48 0 c-27 0 -57 -7 -70 -16z m408 -299 c19 -23 4
-47 -84 -133 -60 -59 -89 -80 -100 -76 -28 11 -106 94 -106 114 0 19 25 35 49
31 7 -1 24 -14 36 -29 l23 -27 70 68 c72 69 91 78 112 52z m287 -64 c18 -2 26
-40 13 -56 -18 -22 -183 -21 -204 1 -15 15 -14 24 5 49 6 8 129 12 186 6z
m-289 -233 c24 -24 11 -46 -77 -132 -100 -97 -96 -96 -163 -33 -46 44 -57 76
-33 93 21 15 49 4 76 -30 17 -21 18 -21 87 47 71 68 88 77 110 55z m294 -67
c14 -2 19 -42 8 -56 -18 -22 -183 -21 -204 1 -17 16 -8 48 15 56 9 3 163 3
181 -1z"/>
</g>
</svg>
